<svg width="14" height="15" viewBox="0 0 14 15" fill="none" xmlns="http://www.w3.org/2000/svg">
<path d="M6.99998 14.4999C6.84957 14.4999 6.64985 14.4109 6.55294 14.3205L1.02782 9.22971C0.776826 8.99203 0.747739 8.60697 1.00247 8.32986C1.2302 8.08214 1.67435 8.07597 1.92164 8.30505L6.34985 12.3916L6.34985 1.13642C6.34985 0.784961 6.64085 0.500061 6.99985 0.500061C7.35884 0.500061 7.64988 0.784961 7.64988 1.13642L7.64988 12.3916L12.0781 8.30505C12.3253 8.076 12.7586 8.09226 12.9972 8.32986C13.2491 8.58075 13.2267 8.99566 12.9719 9.22971L7.44679 14.3205C7.29693 14.4701 7.1526 14.4974 6.99998 14.4999Z" fill="#6D7278"/>
</svg>
