<svg width="6" height="6" viewBox="0 0 6 6" fill="none" xmlns="http://www.w3.org/2000/svg">
<path fill-rule="evenodd" clip-rule="evenodd" d="M3.39125 0.164928C3.34041 0.113318 3.28018 0.0723663 3.21276 0.0437564C3.14589 0.0157074 3.07405 0 3 0C2.92595 0 2.85411 0.0151464 2.78724 0.0437564C2.71983 0.0723663 2.65959 0.113318 2.60875 0.164928L1.09293 1.70313C0.87686 1.92191 0.87686 2.27701 1.09293 2.49636C1.309 2.7157 1.65826 2.7157 1.87433 2.49636L2.44739 1.91574V4.62864C2.44739 4.9383 2.69496 5.18962 3 5.18962C3.30504 5.18962 3.55261 4.9383 3.55261 4.62864V1.91574L4.12457 2.49692C4.23233 2.60631 4.3738 2.66128 4.51527 2.66128C4.65674 2.66128 4.7982 2.60631 4.90596 2.49692C5.12204 2.27814 5.12204 1.92304 4.90596 1.70369L3.39125 0.164928Z" fill="black" fill-opacity="0.85"/>
</svg>
