<svg width="6" height="6" viewBox="0 0 6 6" fill="none" xmlns="http://www.w3.org/2000/svg">
<path fill-rule="evenodd" clip-rule="evenodd" d="M3.39125 4.91546C3.34041 4.96594 3.28018 5.006 3.21276 5.03399C3.14589 5.06143 3.07405 5.0768 3 5.0768C2.92595 5.0768 2.85411 5.06198 2.78724 5.03399C2.71983 5.006 2.65959 4.96594 2.60875 4.91546L1.09293 3.41069C0.87686 3.19666 0.87686 2.84928 1.09293 2.63471C1.309 2.42014 1.65826 2.42014 1.87433 2.63471L2.44739 3.2027V0.548783C2.44739 0.245854 2.69496 -9.53674e-07 3 -9.53674e-07C3.30504 -9.53674e-07 3.55261 0.245854 3.55261 0.548783V3.2027L4.12457 2.63416C4.23233 2.52715 4.3738 2.47337 4.51527 2.47337C4.65674 2.47337 4.7982 2.52715 4.90596 2.63416C5.12204 2.84819 5.12204 3.19557 4.90596 3.41014L3.39125 4.91546Z" fill="black" fill-opacity="0.85"/>
</svg>
