<svg width="24" height="15" viewBox="0 0 24 15" fill="none" xmlns="http://www.w3.org/2000/svg">
<path fill-rule="evenodd" clip-rule="evenodd" d="M12 4.34317C12.305 4.34317 12.5526 4.09731 12.5526 3.79439V0.867174C12.5526 0.564245 12.305 0.31839 12 0.31839C11.695 0.31839 11.4474 0.564245 11.4474 0.867174V3.79439C11.4474 4.09731 11.695 4.34317 12 4.34317ZM6.37992 5.87867C6.59599 6.09324 6.59599 6.44062 6.37992 6.65465C6.27216 6.76166 6.13069 6.81544 5.98922 6.81544C5.84775 6.81544 5.70629 6.76166 5.59853 6.65465L3.51462 4.58518C3.29855 4.37061 3.29855 4.02323 3.51462 3.8092C3.73069 3.59463 4.07994 3.59463 4.29602 3.8092L6.37992 5.87867ZM3.50025 11.6864H0.552613C0.247571 11.6864 0 11.9323 0 12.2352C0 12.5382 0.247571 12.784 0.552613 12.784H3.50025C3.8053 12.784 4.05287 12.5382 4.05287 12.2352C4.05287 11.9323 3.8053 11.6864 3.50025 11.6864ZM23.4474 11.6864H20.4997C20.1947 11.6864 19.9471 11.9323 19.9471 12.2352C19.9471 12.5382 20.1947 12.784 20.4997 12.784H23.4474C23.7524 12.784 24 12.5382 24 12.2352C24 11.9323 23.7524 11.6864 23.4474 11.6864ZM5.86765 12.2352C5.86765 8.87722 8.61856 6.14538 12 6.14538C15.3809 6.14538 18.1318 8.87722 18.1318 12.2352C18.1318 13.0776 17.9588 13.8969 17.6179 14.6707C17.53 14.871 17.3311 15 17.1117 15H6.88777C6.66839 15 6.46945 14.8705 6.38158 14.6707C6.04006 13.8969 5.86765 13.0776 5.86765 12.2352ZM16.7365 13.9024H7.263C7.07069 13.3663 6.97343 12.8071 6.97343 12.2352C6.97343 9.48253 9.22864 7.24294 12.0006 7.24294C14.7725 7.24294 17.0271 9.48253 17.0271 12.2352C17.0266 12.8071 16.9288 13.3663 16.7365 13.9024ZM19.7034 3.8092C19.9195 3.59463 20.2688 3.59463 20.4848 3.8092C20.7009 4.02323 20.7009 4.37061 20.4848 4.58518L18.4009 6.65465C18.2932 6.76166 18.1517 6.81544 18.0102 6.81544C17.8688 6.81544 17.7273 6.76166 17.6195 6.65465C17.4035 6.44062 17.4035 6.09324 17.6195 5.87867L19.7034 3.8092Z" fill="#D56429"/>
</svg>
