<svg width="24" height="16" viewBox="0 0 24 16" fill="none" xmlns="http://www.w3.org/2000/svg">
<path fill-rule="evenodd" clip-rule="evenodd" d="M12 4.59524C12.305 4.59524 12.5526 4.34392 12.5526 4.03426V1.042C12.5526 0.732337 12.305 0.481018 12 0.481018C11.695 0.481018 11.4474 0.732337 11.4474 1.042V4.03426C11.4474 4.34392 11.695 4.59524 12 4.59524ZM6.37992 6.16486C6.59599 6.3842 6.59599 6.7393 6.37992 6.95808C6.27216 7.06747 6.13069 7.12245 5.98922 7.12245C5.84775 7.12245 5.70629 7.06747 5.59853 6.95808L3.51462 4.84263C3.29855 4.62329 3.29855 4.26819 3.51462 4.04941C3.73069 3.83006 4.07994 3.83006 4.29602 4.04941L6.37992 6.16486ZM3.50025 12.1017H0.552613C0.247571 12.1017 0 12.353 0 12.6627C0 12.9723 0.247571 13.2237 0.552613 13.2237H3.50025C3.8053 13.2237 4.05287 12.9723 4.05287 12.6627C4.05287 12.353 3.8053 12.1017 3.50025 12.1017ZM23.4474 12.1017H20.4997C20.1947 12.1017 19.9471 12.353 19.9471 12.6627C19.9471 12.9723 20.1947 13.2237 20.4997 13.2237H23.4474C23.7524 13.2237 24 12.9723 24 12.6627C24 12.353 23.7524 12.1017 23.4474 12.1017ZM5.86765 12.6627C5.86765 9.23005 8.61856 6.43749 12 6.43749C15.3809 6.43749 18.1318 9.23005 18.1318 12.6627C18.1318 13.5238 17.9588 14.3613 17.6179 15.1523C17.53 15.3571 17.3311 15.4889 17.1117 15.4889H6.88777C6.66839 15.4889 6.46945 15.3565 6.38158 15.1523C6.04006 14.3613 5.86765 13.5238 5.86765 12.6627ZM16.7365 14.3669H7.263C7.07069 13.8189 6.97343 13.2472 6.97343 12.6627C6.97343 9.84881 9.22864 7.55945 12.0006 7.55945C14.7725 7.55945 17.0271 9.84881 17.0271 12.6627C17.0266 13.2472 16.9288 13.8189 16.7365 14.3669ZM19.7034 4.04941C19.9195 3.83006 20.2688 3.83006 20.4848 4.04941C20.7009 4.26819 20.7009 4.62329 20.4848 4.84263L18.4009 6.95808C18.2932 7.06747 18.1517 7.12245 18.0102 7.12245C17.8688 7.12245 17.7273 7.06747 17.6195 6.95808C17.4035 6.7393 17.4035 6.3842 17.6195 6.16486L19.7034 4.04941Z" fill="#F7AA00"/>
</svg>
